<mxfile host="app.diagrams.net" agent="Mozilla/5.0 (Windows NT 10.0; Win64; x64) AppleWebKit/537.36 (KHTML, like Gecko) Chrome/135.0.0.0 Safari/537.36 OPR/120.0.0.0" version="28.2.0">
  <diagram name="Page-1" id="A-DxZMbCE_wBxTJ0fh0d">
    <mxGraphModel dx="2293" dy="876" grid="1" gridSize="10" guides="1" tooltips="1" connect="1" arrows="1" fold="1" page="1" pageScale="1" pageWidth="850" pageHeight="1100" math="0" shadow="0">
      <root>
        <mxCell id="0" />
        <mxCell id="1" parent="0" />
        <mxCell id="WHFQn7VN53Inaz3A-vdB-11" value="" style="edgeStyle=orthogonalEdgeStyle;rounded=0;orthogonalLoop=1;jettySize=auto;html=1;" edge="1" parent="1" source="WHFQn7VN53Inaz3A-vdB-12" target="WHFQn7VN53Inaz3A-vdB-14">
          <mxGeometry relative="1" as="geometry" />
        </mxCell>
        <mxCell id="WHFQn7VN53Inaz3A-vdB-12" value="Start" style="ellipse;whiteSpace=wrap;html=1;fillColor=#008a00;fontColor=#ffffff;strokeColor=#005700;" vertex="1" parent="1">
          <mxGeometry x="440" y="192" width="120" height="80" as="geometry" />
        </mxCell>
        <mxCell id="WHFQn7VN53Inaz3A-vdB-13" value="" style="edgeStyle=orthogonalEdgeStyle;rounded=0;orthogonalLoop=1;jettySize=auto;html=1;" edge="1" parent="1" source="WHFQn7VN53Inaz3A-vdB-14" target="WHFQn7VN53Inaz3A-vdB-16">
          <mxGeometry relative="1" as="geometry" />
        </mxCell>
        <mxCell id="WHFQn7VN53Inaz3A-vdB-14" value="Declarations:&lt;div&gt;&lt;span style=&quot;background-color: transparent; color: light-dark(rgb(0, 0, 0), rgb(255, 255, 255));&quot;&gt;num&amp;nbsp;projectedHours&lt;/span&gt;&lt;div&gt;&lt;span style=&quot;background-color: transparent; color: light-dark(rgb(0, 0, 0), rgb(255, 255, 255));&quot;&gt;num wholesaleCosts&lt;/span&gt;&lt;/div&gt;&lt;/div&gt;" style="whiteSpace=wrap;html=1;fillColor=#dae8fc;strokeColor=#6c8ebf;" vertex="1" parent="1">
          <mxGeometry x="415" y="302" width="170" height="60" as="geometry" />
        </mxCell>
        <mxCell id="WHFQn7VN53Inaz3A-vdB-15" value="" style="edgeStyle=orthogonalEdgeStyle;rounded=0;orthogonalLoop=1;jettySize=auto;html=1;" edge="1" parent="1" source="WHFQn7VN53Inaz3A-vdB-16" target="WHFQn7VN53Inaz3A-vdB-18">
          <mxGeometry relative="1" as="geometry" />
        </mxCell>
        <mxCell id="WHFQn7VN53Inaz3A-vdB-16" value="labor" style="shape=process;whiteSpace=wrap;html=1;backgroundOutline=1;fillColor=#0050ef;fontColor=#ffffff;strokeColor=#001DBC;" vertex="1" parent="1">
          <mxGeometry x="440" y="391" width="120" height="60" as="geometry" />
        </mxCell>
        <mxCell id="WHFQn7VN53Inaz3A-vdB-17" value="" style="edgeStyle=orthogonalEdgeStyle;rounded=0;orthogonalLoop=1;jettySize=auto;html=1;" edge="1" parent="1" source="WHFQn7VN53Inaz3A-vdB-18" target="WHFQn7VN53Inaz3A-vdB-20">
          <mxGeometry relative="1" as="geometry" />
        </mxCell>
        <mxCell id="WHFQn7VN53Inaz3A-vdB-18" value="detail" style="shape=process;whiteSpace=wrap;html=1;backgroundOutline=1;fillColor=#0050ef;fontColor=#ffffff;strokeColor=#001DBC;" vertex="1" parent="1">
          <mxGeometry x="440" y="480" width="120" height="60" as="geometry" />
        </mxCell>
        <mxCell id="WHFQn7VN53Inaz3A-vdB-19" value="" style="edgeStyle=orthogonalEdgeStyle;rounded=0;orthogonalLoop=1;jettySize=auto;html=1;entryX=0.5;entryY=0;entryDx=0;entryDy=0;" edge="1" parent="1" source="WHFQn7VN53Inaz3A-vdB-20" target="WHFQn7VN53Inaz3A-vdB-21">
          <mxGeometry relative="1" as="geometry">
            <mxPoint x="500" y="712" as="targetPoint" />
          </mxGeometry>
        </mxCell>
        <mxCell id="WHFQn7VN53Inaz3A-vdB-20" value="endOfJob" style="shape=process;whiteSpace=wrap;html=1;backgroundOutline=1;fillColor=#0050ef;fontColor=#ffffff;strokeColor=#001DBC;" vertex="1" parent="1">
          <mxGeometry x="440" y="573" width="120" height="60" as="geometry" />
        </mxCell>
        <mxCell id="WHFQn7VN53Inaz3A-vdB-21" value="Stop" style="ellipse;whiteSpace=wrap;html=1;fillColor=#008a00;fontColor=#ffffff;strokeColor=#005700;" vertex="1" parent="1">
          <mxGeometry x="440" y="674" width="120" height="80" as="geometry" />
        </mxCell>
        <mxCell id="WHFQn7VN53Inaz3A-vdB-24" value="" style="edgeStyle=orthogonalEdgeStyle;rounded=0;orthogonalLoop=1;jettySize=auto;html=1;" edge="1" parent="1" source="WHFQn7VN53Inaz3A-vdB-22" target="WHFQn7VN53Inaz3A-vdB-23">
          <mxGeometry relative="1" as="geometry" />
        </mxCell>
        <mxCell id="WHFQn7VN53Inaz3A-vdB-22" value="labor" style="shape=process;whiteSpace=wrap;html=1;backgroundOutline=1;fillColor=#0050ef;fontColor=#ffffff;strokeColor=#001DBC;" vertex="1" parent="1">
          <mxGeometry x="110" y="192" width="120" height="60" as="geometry" />
        </mxCell>
        <mxCell id="WHFQn7VN53Inaz3A-vdB-26" style="edgeStyle=orthogonalEdgeStyle;rounded=0;orthogonalLoop=1;jettySize=auto;html=1;exitX=0.5;exitY=1;exitDx=0;exitDy=0;entryX=0.5;entryY=0;entryDx=0;entryDy=0;" edge="1" parent="1" source="WHFQn7VN53Inaz3A-vdB-23" target="WHFQn7VN53Inaz3A-vdB-25">
          <mxGeometry relative="1" as="geometry" />
        </mxCell>
        <mxCell id="WHFQn7VN53Inaz3A-vdB-23" value="output&amp;nbsp;&quot;Please enter total projected hours and total wholesale costs, enter 0 to stop:&quot;&lt;div&gt;input projectedHours&lt;/div&gt;&lt;div&gt;input wholesaleCosts&lt;/div&gt;" style="shape=parallelogram;perimeter=parallelogramPerimeter;whiteSpace=wrap;html=1;fixedSize=1;fillColor=#fa6800;strokeColor=#C73500;fontColor=#000000;" vertex="1" parent="1">
          <mxGeometry x="-10" y="282" width="360" height="110" as="geometry" />
        </mxCell>
        <mxCell id="WHFQn7VN53Inaz3A-vdB-25" value="Return" style="ellipse;whiteSpace=wrap;html=1;fillColor=#008a00;fontColor=#ffffff;strokeColor=#005700;" vertex="1" parent="1">
          <mxGeometry x="110" y="432" width="120" height="80" as="geometry" />
        </mxCell>
        <mxCell id="WHFQn7VN53Inaz3A-vdB-31" value="" style="edgeStyle=orthogonalEdgeStyle;rounded=0;orthogonalLoop=1;jettySize=auto;html=1;" edge="1" parent="1" source="WHFQn7VN53Inaz3A-vdB-27" target="WHFQn7VN53Inaz3A-vdB-30">
          <mxGeometry relative="1" as="geometry" />
        </mxCell>
        <mxCell id="WHFQn7VN53Inaz3A-vdB-27" value="detail" style="shape=process;whiteSpace=wrap;html=1;backgroundOutline=1;fillColor=#0050ef;fontColor=#ffffff;strokeColor=#001DBC;" vertex="1" parent="1">
          <mxGeometry x="110" y="552" width="120" height="60" as="geometry" />
        </mxCell>
        <mxCell id="WHFQn7VN53Inaz3A-vdB-33" value="" style="edgeStyle=orthogonalEdgeStyle;rounded=0;orthogonalLoop=1;jettySize=auto;html=1;" edge="1" parent="1" source="WHFQn7VN53Inaz3A-vdB-30" target="WHFQn7VN53Inaz3A-vdB-32">
          <mxGeometry relative="1" as="geometry" />
        </mxCell>
        <mxCell id="WHFQn7VN53Inaz3A-vdB-30" value="jobCost = projectedHours times 30 plus wholesaleCost times %120" style="whiteSpace=wrap;html=1;fillColor=#1ba1e2;strokeColor=#006EAF;fontColor=#ffffff;" vertex="1" parent="1">
          <mxGeometry x="95" y="652" width="150" height="70" as="geometry" />
        </mxCell>
        <mxCell id="WHFQn7VN53Inaz3A-vdB-35" style="edgeStyle=orthogonalEdgeStyle;rounded=0;orthogonalLoop=1;jettySize=auto;html=1;exitX=0.5;exitY=1;exitDx=0;exitDy=0;entryX=0.5;entryY=0;entryDx=0;entryDy=0;" edge="1" parent="1" source="WHFQn7VN53Inaz3A-vdB-32" target="WHFQn7VN53Inaz3A-vdB-34">
          <mxGeometry relative="1" as="geometry" />
        </mxCell>
        <mxCell id="WHFQn7VN53Inaz3A-vdB-32" value="&lt;div&gt;output &quot;Total cost is&quot; jobCost &quot;for&quot; projectedHours &quot;worked and wholesale costs of&quot; wholesaleCosts&lt;/div&gt;&lt;div&gt;&lt;span style=&quot;white-space: normal;&quot;&gt;&lt;span style=&quot;white-space:pre&quot;&gt;&#x9;&lt;/span&gt;output &quot;Please enter total projected hours and total wholesale costs, enter 0 to stop:&quot;&lt;/span&gt;&lt;/div&gt;&lt;div&gt;&lt;span style=&quot;white-space: normal;&quot;&gt;&lt;span style=&quot;white-space:pre&quot;&gt;&#x9;&lt;/span&gt;input projectedHours&lt;/span&gt;&lt;/div&gt;&lt;div&gt;&lt;span style=&quot;white-space: normal;&quot;&gt;&lt;span style=&quot;white-space:pre&quot;&gt;&#x9;&lt;/span&gt;input wholesaleCosts&lt;/span&gt;&lt;/div&gt;" style="shape=parallelogram;perimeter=parallelogramPerimeter;whiteSpace=wrap;html=1;fixedSize=1;fillColor=#fa6800;strokeColor=#C73500;fontColor=#000000;" vertex="1" parent="1">
          <mxGeometry x="-76.25" y="754" width="492.5" height="130" as="geometry" />
        </mxCell>
        <mxCell id="WHFQn7VN53Inaz3A-vdB-34" value="If projectedHours is &quot;0&quot;" style="ellipse;whiteSpace=wrap;html=1;fillColor=#008a00;fontColor=#ffffff;strokeColor=#005700;" vertex="1" parent="1">
          <mxGeometry x="105" y="920" width="130" height="80" as="geometry" />
        </mxCell>
        <mxCell id="WHFQn7VN53Inaz3A-vdB-36" value="" style="edgeStyle=orthogonalEdgeStyle;rounded=0;orthogonalLoop=1;jettySize=auto;html=1;" edge="1" parent="1" source="WHFQn7VN53Inaz3A-vdB-37" target="WHFQn7VN53Inaz3A-vdB-38">
          <mxGeometry relative="1" as="geometry" />
        </mxCell>
        <mxCell id="WHFQn7VN53Inaz3A-vdB-37" value="endOfJob" style="shape=process;whiteSpace=wrap;html=1;backgroundOutline=1;fillColor=#0050ef;fontColor=#ffffff;strokeColor=#001DBC;" vertex="1" parent="1">
          <mxGeometry x="-315" y="480" width="120" height="60" as="geometry" />
        </mxCell>
        <mxCell id="WHFQn7VN53Inaz3A-vdB-38" value="output &quot;Thank you for using this program" style="shape=parallelogram;perimeter=parallelogramPerimeter;whiteSpace=wrap;html=1;fixedSize=1;fillColor=#fa6800;fontColor=#000000;strokeColor=#C73500;" vertex="1" parent="1">
          <mxGeometry x="-355" y="592" width="200" height="60" as="geometry" />
        </mxCell>
      </root>
    </mxGraphModel>
  </diagram>
</mxfile>
